<?xml version="1.0" encoding="UTF-8" standalone="no"?>
<svg
   xmlns:dc="http://purl.org/dc/elements/1.1/"
   xmlns:cc="http://creativecommons.org/ns#"
   xmlns:rdf="http://www.w3.org/1999/02/22-rdf-syntax-ns#"
   xmlns:svg="http://www.w3.org/2000/svg"
   xmlns="http://www.w3.org/2000/svg"
   xmlns:sodipodi="http://sodipodi.sourceforge.net/DTD/sodipodi-0.dtd"
   xmlns:inkscape="http://www.inkscape.org/namespaces/inkscape"
   width="1000"
   height="1000"
   viewBox="0 0 264.58333 264.58334"
   version="1.1"
   id="svg8"
   inkscape:version="1.0.1 (0767f8302a, 2020-10-17)"
   sodipodi:docname="logo.svg">
  <defs
     id="defs2" />
  <sodipodi:namedview
     id="base"
     pagecolor="#ffffff"
     bordercolor="#666666"
     borderopacity="1.0"
     inkscape:pageopacity="0.0"
     inkscape:pageshadow="2"
     inkscape:zoom="0.35"
     inkscape:cx="400"
     inkscape:cy="560"
     inkscape:document-units="px"
     inkscape:current-layer="layer1"
     inkscape:document-rotation="0"
     showgrid="false"
     showborder="true"
     inkscape:snap-global="true"
     showguides="false"
     units="px"
     inkscape:window-width="1366"
     inkscape:window-height="731"
     inkscape:window-x="0"
     inkscape:window-y="0"
     inkscape:window-maximized="1" />
  <metadata
     id="metadata5">
    <rdf:RDF>
      <cc:Work
         rdf:about="">
        <dc:format>image/svg+xml</dc:format>
        <dc:type
           rdf:resource="http://purl.org/dc/dcmitype/StillImage" />
        <dc:title />
      </cc:Work>
    </rdf:RDF>
  </metadata>
  <g
     inkscape:label="Layer 1"
     inkscape:groupmode="layer"
     id="layer1">
    <g
       id="g840"
       transform="translate(-1.918541,-14.039928)">
      <path
         id="path833"
         style="opacity:0.977564;fill:#2a7fff;fill-opacity:1;stroke-width:0.529167;stroke-linejoin:round"
         d="M 218.4011,132.29167 A 92.85537,96.736717 0 0 1 125.54573,229.02839 92.85537,96.736717 0 0 1 32.690367,132.29167 92.85537,96.736717 0 0 1 125.54573,35.55495 92.85537,96.736717 0 0 1 218.4011,132.29167 Z" />
      <path
         id="path835"
         style="opacity:0.475791;fill:#80b3ff;fill-opacity:1;stroke-width:0.48994;stroke-linejoin:round"
         d="M 203.55992,194.025 A 65.416745,63.08321 0 0 1 138.1432,257.10824 65.416745,63.08321 0 0 1 72.72644,194.025 65.416745,63.08321 0 0 1 138.1432,130.9418 65.416745,63.08321 0 0 1 203.55992,194.025 Z" />
      <path
         id="ellipse837"
         style="opacity:0.663089;fill:#162d50;fill-opacity:1;stroke-width:0.240939;stroke-linejoin:round"
         d="m 235.73005,163.00242 a 32.170134,31.022566 0 0 1 -32.17013,31.02258 32.170134,31.022566 0 0 1 -32.17013,-31.02258 32.170134,31.022566 0 0 1 32.17013,-31.02257 32.170134,31.022566 0 0 1 32.17013,31.02257 z" />
    </g>
  </g>
</svg>
